#N canvas 626 121 776 600 12;
#X obj 103 224 *~;
#X obj 103 318 dac~;
#X floatatom 203 181 5 0 0 0 - - -;
#X obj 197 25 vsl 15 128 0 1 0 0 empty empty empty 0 -9 0 10 -258113
-1 -1 4100 1;
#X obj 102 271 hip~ 5;
#X obj 102 167 noise~;
#X connect 0 0 4 0;
#X connect 3 0 0 1;
#X connect 3 0 2 0;
#X connect 4 0 1 0;
#X connect 5 0 0 0;
