#N canvas 82 362 438 398 12;
#X floatatom 55 211 5 0 0 0 - - -;
#X obj 124 233 *~;
#X obj 109 334 dac~;
#X floatatom 225 200 5 0 0 0 - - -;
#X obj 83 31 vsl 15 128 110 880 0 0 empty empty empty 0 -9 0 10 -4160
-1 -1 4900 1;
#X obj 219 28 vsl 15 128 0 1 0 0 empty empty empty 0 -9 0 10 -258113
-1 -1 5200 1;
#N canvas 701 65 571 410 speana 1;
#X obj 60 35 inlet~;
#X obj 59 79 hip~ 5;
#X obj 59 120 rfft~;
#X obj 59 167 *~;
#X obj 106 166 *~;
#X obj 85 206 +~;
#X obj 82 247 sqrt~;
#X obj 79 290 /~ 256;
#X obj 78 341 tabwrite~ \$0-speana;
#X obj 171 291 metro 100;
#X obj 274 32 loadbang;
#X obj 272 141 send \$0-speana;
#X obj 283 214 block~ 512;
#X obj 280 275 table \$0-speana 128;
#X obj 171 224 tgl 15 0 empty empty empty 17 7 0 10 -262144 -1 -1 1
1;
#X msg 273 86 xticks 0 11.5837 1 \, bounds 0 1 127 0;
#X connect 0 0 1 0;
#X connect 1 0 2 0;
#X connect 2 0 3 0;
#X connect 2 0 3 1;
#X connect 2 1 4 0;
#X connect 2 1 4 1;
#X connect 3 0 5 0;
#X connect 4 0 5 0;
#X connect 5 0 6 0;
#X connect 6 0 7 0;
#X connect 7 0 8 0;
#X connect 9 0 8 0;
#X connect 10 0 14 0;
#X connect 10 0 15 0;
#X connect 14 0 9 0;
#X connect 15 0 11 0;
#X restore 219 299 pd speana;
#N canvas 1279 301 450 300 oscillo 0;
#X obj 41 131 tabwrite~ \$0-oscillo 441;
#X obj 41 178 table \$0-oscillo 441;
#X obj 158 27 loadbang;
#X obj 97 63 tgl 15 0 empty empty empty 17 7 0 10 -262144 -1 -1 1 1
;
#X obj 97 94 metro 1000;
#X obj 253 97 send \$0-oscillo;
#X obj 39 81 hip~ 5;
#X obj 42 30 inlet~;
#X msg 252 60 xticks 0 44.1 1;
#X connect 2 0 3 0;
#X connect 2 0 8 0;
#X connect 3 0 4 0;
#X connect 4 0 0 0;
#X connect 6 0 0 0;
#X connect 7 0 6 0;
#X connect 8 0 5 0;
#X restore 327 300 pd oscillo;
#X obj 119 289 hip~ 5;
#X obj 124 186 osc~ 440;
#X connect 1 0 8 0;
#X connect 1 0 6 0;
#X connect 1 0 7 0;
#X connect 4 0 0 0;
#X connect 4 0 9 0;
#X connect 5 0 1 1;
#X connect 5 0 3 0;
#X connect 8 0 2 0;
#X connect 9 0 1 0;
