#N canvas 230 241 729 660 12;
#X obj 73 139 phasor~ 125;
#X obj 69 222 vcf~ 10;
#X obj 164 224 vcf~ 10;
#X obj 72 305 +~;
#X floatatom 229 36 5 0 0 0 - - -;
#X floatatom 313 36 5 0 0 0 - - -;
#X floatatom 395 36 5 0 0 0 - - -;
#X floatatom 479 34 5 0 0 0 - - -;
#X obj 258 224 vcf~ 10;
#X obj 362 224 vcf~ 10;
#X obj 71 473 dac~;
#X msg 228 85 \$1 10 0;
#X msg 313 87 \$1 10 0;
#X msg 395 85 \$1 10 0;
#X msg 479 85 \$1 10 0;
#X obj 225 136 vline~;
#X obj 314 140 vline~;
#X obj 394 143 vline~;
#X obj 479 144 vline~;
#X msg 237 343 0.5;
#X floatatom 237 392 5 0 0 0 - - -;
#X msg 309 388 0;
#X obj 239 306 bng 15 250 50 0 empty empty empty 17 7 0 10 -262144
-1 -1;
#X obj 309 360 bng 15 250 50 0 empty empty empty 17 7 0 10 -262144
-1 -1;
#X obj 310 324 del 300;
#X obj 121 306 +~;
#X obj 86 356 +~;
#X obj 71 404 *~ 0.25;
#X text 230 11 F1;
#X text 313 11 F2;
#X text 395 11 F3;
#X text 478 11 F4;
#X connect 0 0 1 0;
#X connect 0 0 2 0;
#X connect 0 0 8 0;
#X connect 0 0 9 0;
#X connect 1 0 3 0;
#X connect 2 0 3 1;
#X connect 3 0 26 0;
#X connect 4 0 11 0;
#X connect 5 0 12 0;
#X connect 6 0 13 0;
#X connect 7 0 14 0;
#X connect 8 0 25 0;
#X connect 9 0 25 1;
#X connect 11 0 15 0;
#X connect 12 0 16 0;
#X connect 13 0 17 0;
#X connect 14 0 18 0;
#X connect 15 0 1 1;
#X connect 16 0 2 1;
#X connect 17 0 8 1;
#X connect 18 0 9 1;
#X connect 19 0 20 0;
#X connect 20 0 27 1;
#X connect 21 0 20 0;
#X connect 22 0 19 0;
#X connect 22 0 24 0;
#X connect 23 0 21 0;
#X connect 24 0 23 0;
#X connect 25 0 26 1;
#X connect 26 0 27 0;
#X connect 27 0 10 0;
#X connect 27 0 10 1;
